<?xml version="1.0" encoding="utf-8"?>
<!-- Generator: Adobe Illustrator 16.0.0, SVG Export Plug-In . SVG Version: 6.00 Build 0)  -->
<!DOCTYPE svg PUBLIC "-//W3C//DTD SVG 1.1//EN" "http://www.w3.org/Graphics/SVG/1.1/DTD/svg11.dtd">
<svg version="1.1" id="Layer_1" xmlns="http://www.w3.org/2000/svg" xmlns:xlink="http://www.w3.org/1999/xlink" x="0px" y="0px"
	 width="1190.55px" height="841.89px" viewBox="0 0 1190.55 841.89" enable-background="new 0 0 1190.55 841.89"
	 xml:space="preserve">
<path fill="none" stroke="#010101" stroke-width="11" stroke-miterlimit="10" d="M255.809,742.028L255.809,742.028
	c-70.449,0-127.56-59.471-127.56-132.832V279.585c0-73.36,57.11-132.832,127.56-132.832l0,0
	c70.449,0,127.558,59.472,127.558,132.832v329.611C383.367,682.558,326.258,742.028,255.809,742.028z"/>
<path fill="none" stroke="#010101" stroke-width="11" stroke-miterlimit="10" d="M255.809,501.083
	c44.012,0,82.891-22.424,106.299-56.692c-23.408-34.267-62.287-56.692-106.299-56.692c-44.014,0-82.891,22.425-106.299,56.692
	C172.918,478.659,211.795,501.083,255.809,501.083z"/>
<circle fill="#010101" cx="255.809" cy="444.391" r="42.52"/>
<text transform="matrix(1.1 0 0 1 190.5825 616.5742)" fill="#010101" font-family="'SegoeUIBlack'" font-size="58.9866" letter-spacing="2.727">E</text>
<text transform="matrix(1 0 0 1 229.6274 616.5742)" fill="#010101" font-family="'SegoeUIBlack'" font-size="58.9866" letter-spacing="2">VA</text>
<text transform="matrix(1 0 0 1 151.147 318.8745)" fill="#010101" font-family="'SegoeUIBlack'" font-size="58.9866">VRADY</text>
<g>
	<path fill="#010101" d="M613.809,747.528c-73.369,0-133.059-62.056-133.059-138.332V279.585
		c0-76.276,59.69-138.332,133.059-138.332s133.059,62.056,133.059,138.332v329.611C746.867,685.473,687.178,747.528,613.809,747.528
		z M613.809,152.253c-67.304,0-122.059,57.121-122.059,127.332v329.611c0,70.211,54.755,127.332,122.059,127.332
		s122.059-57.121,122.059-127.332V279.585C735.867,209.375,681.112,152.253,613.809,152.253z"/>
</g>
<g>
	<path fill="#010101" d="M613.809,506.583c-44.13,0-85.565-22.09-110.84-59.09l-2.119-3.103l2.119-3.103
		c25.275-37,66.71-59.089,110.84-59.089c44.13,0,85.565,22.089,110.841,59.089l2.119,3.103l-2.119,3.103
		C699.375,484.493,657.939,506.583,613.809,506.583z M514.24,444.391c23.381,32.125,60.323,51.192,99.569,51.192
		c39.246,0,76.188-19.067,99.569-51.192c-23.382-32.125-60.324-51.192-99.569-51.192
		C574.564,393.199,537.622,412.266,514.24,444.391z"/>
</g>
<g>
	<circle fill="#010101" cx="613.809" cy="444.391" r="42.519"/>
</g>
<g>
	<path fill="#010101" d="M553.049,616.574v-41.301h28.293v9.734h-14.605v6.02h13.718v9.734h-13.718v6.078h15.65v9.734H553.049z"/>
	<path fill="#010101" d="M615.221,616.574H601.25l-13.334-41.301h13.393l6.307,25.432c0.5,2.055,0.779,3.59,0.836,4.607h0.289
		c0.115-1.285,0.412-2.879,0.893-4.781l6.135-25.258h12.961L615.221,616.574z"/>
	<path fill="#010101" d="M661.949,616.574l-1.814-7.604h-12.328l-1.959,7.604h-13.449l14.229-41.301h15.438l13.393,41.301H661.949z
		 M654.115,584.26h-0.289c-0.039,0.459-0.172,1.219-0.402,2.275c-0.23,1.055-1.393,5.586-3.486,13.594h7.893l-2.881-11.232
		C654.547,587.244,654.268,585.699,654.115,584.26z"/>
</g>
<g>
	<path fill="#010101" d="M536.74,318.875h-13.97l-13.335-41.302h13.393l6.308,25.432c0.499,2.055,0.778,3.591,0.836,4.608h0.288
		c0.115-1.286,0.412-2.88,0.893-4.781l6.135-25.259h12.961L536.74,318.875z"/>
	<path fill="#010101" d="M576.054,318.875l-3.082-8.899c-0.596-1.747-1.368-3.12-2.318-4.119c-0.951-0.998-1.983-1.498-3.097-1.498
		h-0.489v14.517h-12.442v-41.302h16.532c5.779,0,10.047,0.945,12.802,2.837c2.756,1.892,4.134,4.729,4.134,8.511
		c0,2.842-0.802,5.223-2.405,7.143c-1.604,1.921-3.989,3.313-7.157,4.177v0.115c1.747,0.538,3.201,1.411,4.363,2.621
		c1.162,1.209,2.203,3.005,3.125,5.386l4.062,10.513H576.054z M574.873,290.677c0-1.383-0.422-2.477-1.267-3.283
		c-0.846-0.807-2.171-1.21-3.975-1.21h-2.563v9.447h2.246c1.671,0,3.015-0.471,4.032-1.411S574.873,292.098,574.873,290.677z"/>
	<path fill="#010101" d="M620.754,318.875l-1.814-7.604h-12.326l-1.959,7.604h-13.451l14.228-41.302h15.438l13.393,41.302H620.754z
		 M612.92,286.559h-0.287c-0.039,0.46-0.174,1.219-0.404,2.275c-0.23,1.056-1.393,5.587-3.484,13.594h7.891l-2.879-11.232
		C613.352,289.544,613.074,287.999,612.92,286.559z"/>
	<path fill="#010101" d="M678.041,297.705c0,4.187-0.877,7.888-2.635,11.104c-1.756,3.217-4.268,5.698-7.531,7.445
		c-3.266,1.748-7.027,2.621-11.291,2.621h-17.482v-41.302h17.109C670.764,277.573,678.041,284.284,678.041,297.705z M664.822,297.82
		c0-2.016-0.408-3.83-1.225-5.443c-0.816-1.612-1.982-2.86-3.5-3.744c-1.516-0.883-3.303-1.325-5.357-1.325h-3.195v21.832h3.484
		c2.977,0,5.352-1.022,7.129-3.067C663.934,304.027,664.822,301.277,664.822,297.82z"/>
	<path fill="#010101" d="M704.973,304.531v14.344h-12.443v-14.171l-12.73-27.131h14.287l4.463,12.989
		c0.307,0.884,0.523,1.651,0.648,2.305c0.125,0.652,0.264,1.315,0.418,1.987h0.115c0.25-1.747,0.527-3.102,0.836-4.062l4.406-13.22
		h13.162L704.973,304.531z"/>
</g>
<g>
	<path fill="#FFFFFF" d="M963.809,747.528c-73.369,0-133.059-62.056-133.059-138.332V279.585
		c0-76.276,59.689-138.332,133.059-138.332s133.059,62.056,133.059,138.332v329.611
		C1096.867,685.473,1037.178,747.528,963.809,747.528z M963.809,152.253c-67.304,0-122.059,57.121-122.059,127.332v329.611
		c0,70.211,54.755,127.332,122.059,127.332s122.059-57.121,122.059-127.332V279.585
		C1085.867,209.375,1031.112,152.253,963.809,152.253z"/>
</g>
<g>
	<path fill="#FFFFFF" d="M963.809,506.583c-44.131,0-85.565-22.09-110.84-59.09l-2.119-3.103l2.119-3.103
		c25.275-37,66.711-59.089,110.84-59.089c44.13,0,85.565,22.089,110.841,59.089l2.119,3.103l-2.119,3.103
		C1049.375,484.493,1007.939,506.583,963.809,506.583z M864.24,444.391c23.381,32.125,60.322,51.192,99.568,51.192
		s76.188-19.067,99.569-51.192c-23.382-32.125-60.324-51.192-99.569-51.192C924.564,393.199,887.621,412.266,864.24,444.391z"/>
</g>
<g>
	<circle fill="#FFFFFF" cx="963.809" cy="444.391" r="42.52"/>
</g>
<g>
	<path fill="#FFFFFF" d="M903.049,616.574v-41.301h28.293v9.734h-14.605v6.02h13.719v9.734h-13.719v6.078h15.65v9.734H903.049z"/>
	<path fill="#FFFFFF" d="M965.221,616.574H951.25l-13.334-41.301h13.393l6.307,25.432c0.5,2.055,0.779,3.59,0.836,4.607h0.289
		c0.115-1.285,0.412-2.879,0.893-4.781l6.135-25.258h12.961L965.221,616.574z"/>
	<path fill="#FFFFFF" d="M1011.949,616.574l-1.814-7.604h-12.328l-1.959,7.604h-13.449l14.229-41.301h15.438l13.393,41.301H1011.949
		z M1004.115,584.26h-0.289c-0.039,0.459-0.172,1.219-0.402,2.275c-0.23,1.055-1.393,5.586-3.486,13.594h7.893l-2.881-11.232
		C1004.547,587.244,1004.268,585.699,1004.115,584.26z"/>
</g>
<g>
	<path fill="#FFFFFF" d="M886.74,318.875H872.77l-13.334-41.302h13.393l6.307,25.432c0.5,2.055,0.779,3.591,0.836,4.608h0.289
		c0.115-1.286,0.412-2.88,0.893-4.781l6.135-25.259h12.961L886.74,318.875z"/>
	<path fill="#FFFFFF" d="M926.055,318.875l-3.082-8.899c-0.596-1.747-1.369-3.12-2.318-4.119c-0.951-0.998-1.984-1.498-3.098-1.498
		h-0.488v14.517h-12.443v-41.302h16.533c5.779,0,10.047,0.945,12.801,2.837c2.756,1.892,4.135,4.729,4.135,8.511
		c0,2.842-0.803,5.223-2.406,7.143c-1.604,1.921-3.988,3.313-7.156,4.177v0.115c1.746,0.538,3.201,1.411,4.363,2.621
		c1.162,1.209,2.203,3.005,3.125,5.386l4.061,10.513H926.055z M924.873,290.677c0-1.383-0.422-2.477-1.268-3.283
		s-2.17-1.21-3.975-1.21h-2.563v9.447h2.246c1.67,0,3.014-0.471,4.031-1.411S924.873,292.098,924.873,290.677z"/>
	<path fill="#FFFFFF" d="M970.754,318.875l-1.814-7.604h-12.326l-1.959,7.604h-13.451l14.229-41.302h15.438l13.393,41.302H970.754z
		 M962.92,286.559h-0.287c-0.039,0.46-0.174,1.219-0.404,2.275c-0.23,1.056-1.393,5.587-3.484,13.594h7.891l-2.879-11.232
		C963.352,289.544,963.074,287.999,962.92,286.559z"/>
	<path fill="#FFFFFF" d="M1028.041,297.705c0,4.187-0.877,7.888-2.635,11.104c-1.756,3.217-4.268,5.698-7.531,7.445
		c-3.266,1.748-7.027,2.621-11.291,2.621h-17.482v-41.302h17.109C1020.764,277.573,1028.041,284.284,1028.041,297.705z
		 M1014.822,297.82c0-2.016-0.408-3.83-1.225-5.443c-0.816-1.612-1.982-2.86-3.5-3.744c-1.516-0.883-3.303-1.325-5.357-1.325h-3.195
		v21.832h3.484c2.977,0,5.352-1.022,7.129-3.067C1013.934,304.027,1014.822,301.277,1014.822,297.82z"/>
	<path fill="#FFFFFF" d="M1054.973,304.531v14.344h-12.443v-14.171l-12.73-27.131h14.287l4.463,12.989
		c0.307,0.884,0.523,1.651,0.648,2.305c0.125,0.652,0.264,1.315,0.418,1.987h0.115c0.25-1.747,0.527-3.102,0.836-4.062l4.406-13.22
		h13.162L1054.973,304.531z"/>
</g>
</svg>
